<?xml version="1.0" encoding="UTF-8"?>
<svg version="1.1" xmlns="http://www.w3.org/2000/svg" width="1536" height="688">
<path d="M0 0 C506.88 0 1013.76 0 1536 0 C1536 227.04 1536 454.08 1536 688 C1029.12 688 522.24 688 0 688 C0 460.96 0 233.92 0 0 Z " fill="#F7F8FD" transform="translate(0,0)"/>
<path d="M0 0 C42.57 0 85.14 0 129 0 C129 4.95 129 9.9 129 15 C134.28 15 139.56 15 145 15 C145 20.28 145 25.56 145 31 C150.28 31 155.56 31 161 31 C161 92.38 161 153.76 161 217 C155.39 217 149.78 217 144 217 C144 221.95 144 226.9 144 232 C138.72 232 133.44 232 128 232 C128 237.28 128 242.56 128 248 C85.76 248 43.52 248 0 248 C0 166.16 0 84.32 0 0 Z " fill="#2113D6" transform="translate(1217,220)"/>
<path d="M0 0 C42.57 0 85.14 0 129 0 C129 4.95 129 9.9 129 15 C133.89153471 14.9604321 133.89153471 14.9604321 138.78295898 14.90991211 C140.52221717 14.90275087 142.26145304 14.94975298 144 15 C145 16 145 16 145.09765625 19.37890625 C145.09191424 20.77347492 145.07890228 22.16801597 145.0625 23.5625 C145.041875 26.016875 145.02125 28.47125 145 31 C150.28 31 155.56 31 161 31 C161 61.69 161 92.38 161 124 C155.39 124 149.78 124 144 124 C144 129.28 144 134.56 144 140 C139.05 140 134.1 140 129 140 C129 144.95 129 149.9 129 155 C133.95 155 138.9 155 144 155 C144 160.28 144 165.56 144 171 C149.28 171 154.56 171 160 171 C160 196.41 160 221.82 160 248 C144.49 248 128.98 248 113 248 C113 227.54 113 207.08 113 186 C107.39 186 101.78 186 96 186 C96 181.05 96 176.1 96 171 C90.72 171 85.44 171 80 171 C80 165.72 80 160.44 80 155 C69.44 155 58.88 155 48 155 C48 185.69 48 216.38 48 248 C32.16 248 16.32 248 0 248 C0 166.16 0 84.32 0 0 Z " fill="#2114D6" transform="translate(317,220)"/>
<path d="M0 0 C21.78 0 43.56 0 66 0 C66 4.95 66 9.9 66 15 C71.28 15 76.56 15 82 15 C82 20.28 82 25.56 82 31 C87.28 31 92.56 31 98 31 C98 41.23 98 51.46 98 62 C103.28 62 108.56 62 114 62 C114 123.38 114 184.76 114 248 C98.16 248 82.32 248 66 248 C66 222.59 66 197.18 66 171 C44.55 171 23.1 171 1 171 C1 196.41 1 221.82 1 248 C-15.17 248 -31.34 248 -48 248 C-48 186.62 -48 125.24 -48 62 C-42.72 62 -37.44 62 -32 62 C-32 51.77 -32 41.54 -32 31 C-26.72 31 -21.44 31 -16 31 C-16 25.72 -16 20.44 -16 15 C-10.72 15 -5.44 15 0 15 C0 10.05 0 5.1 0 0 Z " fill="#2013D7" transform="translate(165,220)"/>
<path d="M0 0 C21.45 0 42.9 0 65 0 C65 4.95 65 9.9 65 15 C70.28 15 75.56 15 81 15 C81 20.28 81 25.56 81 31 C86.28 31 91.56 31 97 31 C97 41.23 97 51.46 97 62 C102.28 62 107.56 62 113 62 C113 123.38 113 184.76 113 248 C97.16 248 81.32 248 65 248 C65 222.59 65 197.18 65 171 C43.55 171 22.1 171 0 171 C0 196.41 0 221.82 0 248 C-15.84 248 -31.68 248 -48 248 C-48 186.62 -48 125.24 -48 62 C-42.72 62 -37.44 62 -32 62 C-32 51.77 -32 41.54 -32 31 C-26.72 31 -21.44 31 -16 31 C-16 26.05 -16 21.1 -16 16 C-10.72 16 -5.44 16 0 16 C0 10.72 0 5.44 0 0 Z " fill="#2013D6" transform="translate(554,220)"/>
<path d="M0 0 C15.84 0 31.68 0 48 0 C48 4.95 48 9.9 48 15 C53.61 15 59.22 15 65 15 C65 25.23 65 35.46 65 46 C70.28 46 75.56 46 81 46 C81 51.28 81 56.56 81 62 C86.28 62 91.56 62 97 62 C97 66.95 97 71.9 97 77 C102.28 77 107.56 77 113 77 C113 51.59 113 26.18 113 0 C128.84 0 144.68 0 161 0 C161 81.84 161 163.68 161 248 C145.16 248 129.32 248 113 248 C113 217.31 113 186.62 113 155 C107.72 155 102.44 155 97 155 C97 149.72 97 144.44 97 139 C91.72 139 86.44 139 81 139 C81 134.05 81 129.1 81 124 C75.72 124 70.44 124 65 124 C65 113.77 65 103.54 65 93 C59.39 93 53.78 93 48 93 C48 144.15 48 195.3 48 248 C32.16 248 16.32 248 0 248 C0 166.16 0 84.32 0 0 Z " fill="#2115D4" transform="translate(1027,220)"/>
<path d="M0 0 C16.17 0 32.34 0 49 0 C49 51.15 49 102.3 49 155 C54.28 155 59.56 155 65 155 C65 165.23 65 175.46 65 186 C75.89 186 86.78 186 98 186 C98 175.77 98 165.54 98 155 C103.28 155 108.56 155 114 155 C114 103.85 114 52.7 114 0 C129.84 0 145.68 0 162 0 C162 56.43 162 112.86 162 171 C156.72 171 151.44 171 146 171 C146 181.23 146 191.46 146 202 C140.72 202 135.44 202 130 202 C130 206.95 130 211.9 130 217 C124.72 217 119.44 217 114 217 C114 222.28 114 227.56 114 233 C108.72 233 103.44 233 98 233 C98 237.95 98 242.9 98 248 C87.11 248 76.22 248 65 248 C65 243.05 65 238.1 65 233 C59.72 233 54.44 233 49 233 C49 227.72 49 222.44 49 217 C43.39 217 37.78 217 32 217 C32 212.05 32 207.1 32 202 C26.72 202 21.44 202 16 202 C16 191.77 16 181.54 16 171 C10.72 171 5.44 171 0 171 C0 114.57 0 58.14 0 0 Z " fill="#2013D6" transform="translate(695,220)"/>
<path d="M0 0 C37.62 0 75.24 0 114 0 C114 15.18 114 30.36 114 46 C103.11 46 92.22 46 81 46 C81 97.48 81 148.96 81 202 C91.89 202 102.78 202 114 202 C114 217.18 114 232.36 114 248 C76.71 248 39.42 248 1 248 C1 232.82 1 217.64 1 202 C11.56 202 22.12 202 33 202 C33 150.85 33 99.7 33 47 C22.11 47 11.22 47 0 47 C0 31.49 0 15.98 0 0 Z " fill="#2013D6" transform="translate(885,220)"/>
<path d="M0 0 C16.17 0 32.34 0 49 0 C49 5.28 49 10.56 49 16 C54.28 16 59.56 16 65 16 C65 56.92 65 97.84 65 140 C59.72 140 54.44 140 49 140 C49 145.28 49 150.56 49 156 C32.83 156 16.66 156 0 156 C0 104.52 0 53.04 0 0 Z " fill="#F6F6FD" transform="translate(1265,266)"/>
<path d="M0 0 C10.56 0 21.12 0 32 0 C32 5.28 32 10.56 32 16 C37.61 16 43.22 16 49 16 C49 31.18 49 46.36 49 62 C27.55 62 6.1 62 -16 62 C-16 46.82 -16 31.64 -16 16 C-10.72 16 -5.44 16 0 16 C0 10.72 0 5.44 0 0 Z " fill="#F6F6FD" transform="translate(570,282)"/>
<path d="M0 0 C10.56 0 21.12 0 32 0 C32 5.28 32 10.56 32 16 C37.61 16 43.22 16 49 16 C49 31.18 49 46.36 49 62 C27.55 62 6.1 62 -16 62 C-16 46.82 -16 31.64 -16 16 C-10.72 16 -5.44 16 0 16 C0 10.72 0 5.44 0 0 Z " fill="#F6F6FE" transform="translate(182,282)"/>
<path d="M0 0 C15.84 0 31.68 0 48 0 C48 4.95 48 9.9 48 15 C53.61 15 59.22 15 65 15 C65 25.23 65 35.46 65 46 C59.39 46 53.78 46 48 46 C48 50.95 48 55.9 48 61 C32.16 61 16.32 61 0 61 C0 40.87 0 20.74 0 0 Z " fill="#F6F6FD" transform="translate(365,267)"/>
<path d="M0 0 C15.51 0 31.02 0 47 0 C47 15.18 47 30.36 47 46 C31.49 46 15.98 46 0 46 C0 30.82 0 15.64 0 0 Z " fill="#2114CF" transform="translate(1403,422)"/>
<path d="M0 0 C42.24 0 84.48 0 128 0 C128 5.28 128 10.56 128 16 C127.34 16 126.68 16 126 16 C126 11.71 126 7.42 126 3 C85.41 2.67 44.82 2.34 3 2 C3.165 18.149375 3.33 34.29875 3.5 50.9375 C3.59809673 61.30858142 3.69518694 71.67957495 3.77734375 82.05078125 C3.78252478 82.70267119 3.78770582 83.35456112 3.79304385 84.0262053 C4.06554282 118.55887664 4.08339297 153.0914347 4.0625 187.625 C4.06207577 188.34724683 4.06165154 189.06949367 4.06121445 189.81362677 C4.05022424 208.20909881 4.02909681 226.60454703 4 245 C17.2 244.67 30.4 244.34 44 244 C44.06058594 238.84375 44.12117188 233.6875 44.18359375 228.375 C44.22416872 225.07551409 44.26498261 221.77603448 44.30664062 218.4765625 C44.37249592 213.25881362 44.43754671 208.04106481 44.49731445 202.82324219 C44.54564704 198.60861384 44.59799763 194.39405156 44.65294075 190.17950439 C44.67305757 188.58507978 44.6918139 186.9906373 44.70907402 185.3961792 C45.04194942 154.95805058 45.04194942 154.95805058 47 153 C49.50924153 152.89912788 51.99036384 152.86027968 54.5 152.8671875 C55.25087891 152.86623077 56.00175781 152.86527405 56.77539062 152.86428833 C58.36588627 152.86360662 59.95638467 152.86546028 61.546875 152.86962891 C63.98964655 152.87497733 66.43223421 152.86968366 68.875 152.86328125 C70.41666707 152.86394203 71.95833403 152.8652232 73.5 152.8671875 C74.23541016 152.86516327 74.97082031 152.86313904 75.72851562 152.86105347 C80.88504839 152.88504839 80.88504839 152.88504839 82 154 C82.07313567 156.53049402 82.09247527 159.03304837 82.0625 161.5625 C82.05798828 162.27341797 82.05347656 162.98433594 82.04882812 163.71679688 C82.03700864 165.47790013 82.01907263 167.23896036 82 169 C83.04800781 168.96519531 84.09601563 168.93039062 85.17578125 168.89453125 C86.55467147 168.86639063 87.93357902 168.83909076 89.3125 168.8125 C90.00279297 168.78736328 90.69308594 168.76222656 91.40429688 168.73632812 C94.2567522 168.69498819 96.45685677 168.68963244 98.96875 170.125 C100.47436282 172.86247786 100.28741783 175.09004741 100.1875 178.1875 C100.14689453 179.81751953 100.14689453 179.81751953 100.10546875 181.48046875 C100.07066406 182.31191406 100.03585937 183.14335937 100 184 C100.91523438 183.97679687 101.83046875 183.95359375 102.7734375 183.9296875 C103.96195312 183.91164063 105.15046875 183.89359375 106.375 183.875 C107.55835938 183.85179687 108.74171875 183.82859375 109.9609375 183.8046875 C113 184 113 184 115 186 C115.3347168 188.18188477 115.3347168 188.18188477 115.44921875 190.94140625 C115.49312744 191.98514404 115.53703613 193.02888184 115.58227539 194.10424805 C115.61699951 195.24547119 115.65172363 196.38669434 115.6875 197.5625 C115.74828735 199.32364136 115.74828735 199.32364136 115.81030273 201.12036133 C116.22519473 216.10235536 115.56866711 231.02509955 115 246 C129.19 246 143.38 246 158 246 C158 221.91 158 197.82 158 173 C153.38 173 148.76 173 144 173 C141.64880601 169.47320901 141.78556548 167.97120515 141.875 163.8125 C141.89304687 162.72582031 141.91109375 161.63914062 141.9296875 160.51953125 C141.95289063 159.68808594 141.97609375 158.85664063 142 158 C141.39671875 158.0721875 140.7934375 158.144375 140.171875 158.21875 C139.37265625 158.3115625 138.5734375 158.404375 137.75 158.5 C136.96109375 158.5928125 136.1721875 158.685625 135.359375 158.78125 C133 159 133 159 129 159 C128.67 157.68 128.34 156.36 128 155 C133.28 155 138.56 155 144 155 C144 160.28 144 165.56 144 171 C149.28 171 154.56 171 160 171 C160 196.41 160 221.82 160 248 C144.49 248 128.98 248 113 248 C113 227.54 113 207.08 113 186 C107.39 186 101.78 186 96 186 C96 181.05 96 176.1 96 171 C90.72 171 85.44 171 80 171 C80 165.72 80 160.44 80 155 C69.44 155 58.88 155 48 155 C48 185.69 48 216.38 48 248 C32.16 248 16.32 248 0 248 C0 166.16 0 84.32 0 0 Z " fill="#2E24AE" transform="translate(317,220)"/>
<path d="M0 0 C21.78 0 43.56 0 66 0 C66 4.95 66 9.9 66 15 C71.28 15 76.56 15 82 15 C82 20.28 82 25.56 82 31 C87.28 31 92.56 31 98 31 C98 41.23 98 51.46 98 62 C103.28 62 108.56 62 114 62 C114 123.38 114 184.76 114 248 C98.16 248 82.32 248 66 248 C66 222.59 66 197.18 66 171 C44.55 171 23.1 171 1 171 C1 196.41 1 221.82 1 248 C0.67 248 0.34 248 0 248 C-0.495 245.525 -0.495 245.525 -1 243 C-1.33 243 -1.66 243 -2 243 C-2 218.91 -2 194.82 -2 170 C-1.34 170 -0.68 170 0 170 C0 169.34 0 168.68 0 168 C8.57077598 167.95371573 17.14149997 167.91815081 25.71236992 167.89637566 C29.69191773 167.88592614 33.67138021 167.87174578 37.65087891 167.84912109 C41.48933886 167.82743415 45.32771659 167.81544018 49.16623306 167.81024551 C50.63270487 167.80654227 52.09917205 167.799311 53.56560898 167.78853989 C55.61529106 167.77407981 57.66463082 167.77201971 59.71435547 167.77294922 C60.88239716 167.768508 62.05043884 167.76406677 63.25387573 167.75949097 C66 168 66 168 68 170 C68.18769518 172.43937054 68.25198605 174.76414728 68.22705078 177.20361328 C68.22734283 177.9451767 68.22763489 178.68674011 68.22793579 179.45077515 C68.22653994 181.90740571 68.21096698 184.36373478 68.1953125 186.8203125 C68.19158327 188.52139114 68.18873587 190.22247192 68.18673706 191.92355347 C68.17909349 196.40510976 68.15943884 200.88653683 68.1373291 205.36804199 C68.11329323 210.74279612 68.10409313 216.1175934 68.09242249 221.49238586 C68.07301481 229.66168051 68.03469739 237.8306915 68 246 C82.52 246 97.04 246 112 246 C112 185.61 112 125.22 112 63 C107.05 63 102.1 63 97 63 C96.67 53.43 96.34 43.86 96 34 C90.7796934 33.71082605 90.7796934 33.71082605 85.55883789 33.43188477 C80.11111111 33.11111111 80.11111111 33.11111111 79 32 C78.60333773 29.81980521 78.25684763 27.6303537 77.9375 25.4375 C77.67259766 23.64119141 77.67259766 23.64119141 77.40234375 21.80859375 C77.26957031 20.88175781 77.13679688 19.95492187 77 19 C76.24074219 18.96261719 75.48148437 18.92523438 74.69921875 18.88671875 C73.70535156 18.82097656 72.71148437 18.75523437 71.6875 18.6875 C70.70136719 18.62949219 69.71523437 18.57148438 68.69921875 18.51171875 C66 18 66 18 64.15625 16.875 C61.56034706 12.66542767 62.85781778 6.78680125 63 2 C62.25476074 2.0714624 61.50952148 2.1429248 60.74169922 2.21655273 C49.20134685 3.19058365 37.69766506 3.11208377 26.125 3.0625 C24.06901151 3.05747274 22.01302183 3.05291201 19.95703125 3.04882812 C14.97132408 3.03792482 9.9856756 3.02072847 5 3 C3.88870931 6.33387207 3.65184903 9.35937408 3.37890625 12.84375 C3 15 3 15 1 18 C-2.2578125 18.29296875 -2.2578125 18.29296875 -6.125 18.1875 C-8.04699219 18.14689453 -8.04699219 18.14689453 -10.0078125 18.10546875 C-10.99523437 18.07066406 -11.98265625 18.03585938 -13 18 C-12.97679687 18.90363281 -12.95359375 19.80726563 -12.9296875 20.73828125 C-12.91164062 21.91777344 -12.89359375 23.09726563 -12.875 24.3125 C-12.85179687 25.48425781 -12.82859375 26.65601563 -12.8046875 27.86328125 C-13 31 -13 31 -15 34 C-17.56640625 34.4765625 -17.56640625 34.4765625 -20.5625 34.625 C-24.0936834 34.5198555 -24.0936834 34.5198555 -27 36 C-27.13374877 37.90201655 -27.20351628 39.80860587 -27.24609375 41.71484375 C-27.27896484 42.87564453 -27.31183594 44.03644531 -27.34570312 45.23242188 C-27.406802 47.69847632 -27.46410615 50.16462776 -27.51757812 52.63085938 C-27.55173828 53.79294922 -27.58589844 54.95503906 -27.62109375 56.15234375 C-27.6461499 57.22476318 -27.67120605 58.29718262 -27.69702148 59.40209961 C-28 62 -28 62 -30 64 C-35.28 64 -40.56 64 -46 64 C-46.33 124.72 -46.66 185.44 -47 248 C-47.33 248 -47.66 248 -48 248 C-48 186.62 -48 125.24 -48 62 C-42.72 62 -37.44 62 -32 62 C-32 51.77 -32 41.54 -32 31 C-26.72 31 -21.44 31 -16 31 C-16 25.72 -16 20.44 -16 15 C-10.72 15 -5.44 15 0 15 C0 10.05 0 5.1 0 0 Z " fill="#1F17A4" transform="translate(165,220)"/>
<path d="M0 0 C16.17 0 32.34 0 49 0 C49 51.15 49 102.3 49 155 C54.28 155 59.56 155 65 155 C65 165.23 65 175.46 65 186 C64.34 186 63.68 186 63 186 C63 176.43 63 166.86 63 157 C57.72 157 52.44 157 47 157 C45.62894269 154.25788537 45.85948681 152.05957046 45.84178162 148.98898315 C45.8319928 147.70728241 45.82220398 146.42558167 45.81211853 145.1050415 C45.80621394 143.67663612 45.80040352 142.24823034 45.79467773 140.81982422 C45.78510192 139.32200854 45.77509202 137.82419559 45.76467896 136.3263855 C45.73759166 132.25227106 45.71660285 128.17814499 45.69667697 124.10399008 C45.67484096 119.84918175 45.64744063 115.59440943 45.62062073 111.33963013 C45.57066152 103.27904225 45.52573469 95.21843443 45.48259836 87.15780747 C45.43325354 77.9825794 45.37832521 68.80738744 45.32291877 59.63219428 C45.20904918 40.75482819 45.10295816 21.87742897 45 3 C31.14 2.67 17.28 2.34 3 2 C3.33 57.11 3.66 112.22 4 169 C7.96 169 11.92 169 16 169 C17.485 169.99 17.485 169.99 19 171 C19.43237305 173.79736328 19.43237305 173.79736328 19.51171875 177.3203125 C19.56489258 179.20556641 19.56489258 179.20556641 19.61914062 181.12890625 C19.64169922 182.44761719 19.66425781 183.76632812 19.6875 185.125 C19.72066529 186.46487759 19.75515422 187.80472311 19.79101562 189.14453125 C19.87372777 192.42938482 19.93853273 195.71468022 20 199 C24.62 199 29.24 199 34 199 C35.89828918 203.74572296 37 207.88549514 37 213 C37.59167969 212.96519531 38.18335938 212.93039062 38.79296875 212.89453125 C43.65404565 212.7280017 47.15341035 212.63423405 51 216 C52.17338277 219.20396732 51.9596858 221.89598659 51.5625 225.25 C51.46066406 226.14203125 51.35882812 227.0340625 51.25390625 227.953125 C51.17011719 228.62859375 51.08632813 229.3040625 51 230 C51.98742187 229.97679687 52.97484375 229.95359375 53.9921875 229.9296875 C55.27351562 229.91164063 56.55484375 229.89359375 57.875 229.875 C59.15117188 229.85179687 60.42734375 229.82859375 61.7421875 229.8046875 C65 230 65 230 67 232 C67.28034724 236.67619188 67.08523334 241.31216611 67 246 C75.91 245.67 84.82 245.34 94 245 C94.495 238.565 94.495 238.565 95 232 C97.77042109 229.22957891 99.76533805 229.60203894 103.625 229.375 C105.40777344 229.26285156 105.40777344 229.26285156 107.2265625 229.1484375 C108.14179687 229.09945312 109.05703125 229.05046875 110 229 C110.06058594 228.14535156 110.12117187 227.29070312 110.18359375 226.41015625 C110.26738281 225.30542969 110.35117187 224.20070313 110.4375 223.0625 C110.55931641 221.40927734 110.55931641 221.40927734 110.68359375 219.72265625 C111 217 111 217 112 216 C114.86267567 215.92674832 117.700719 215.90761795 120.5625 215.9375 C121.36880859 215.94201172 122.17511719 215.94652344 123.00585938 215.95117188 C125.00393756 215.96299482 127.00197783 215.98093086 129 216 C129 211.38 129 206.76 129 202 C129.33 202 129.66 202 130 202 C130 206.95 130 211.9 130 217 C124.72 217 119.44 217 114 217 C114 222.28 114 227.56 114 233 C108.72 233 103.44 233 98 233 C98 237.95 98 242.9 98 248 C87.11 248 76.22 248 65 248 C65 243.05 65 238.1 65 233 C59.72 233 54.44 233 49 233 C49 227.72 49 222.44 49 217 C43.39 217 37.78 217 32 217 C32 212.05 32 207.1 32 202 C26.72 202 21.44 202 16 202 C16 191.77 16 181.54 16 171 C10.72 171 5.44 171 0 171 C0 114.57 0 58.14 0 0 Z " fill="#2016B0" transform="translate(695,220)"/>
<path d="M0 0 C21.45 0 42.9 0 65 0 C65 4.95 65 9.9 65 15 C70.28 15 75.56 15 81 15 C81 20.28 81 25.56 81 31 C86.28 31 91.56 31 97 31 C97 41.23 97 51.46 97 62 C102.28 62 107.56 62 113 62 C113 123.38 113 184.76 113 248 C97.16 248 81.32 248 65 248 C65 222.59 65 197.18 65 171 C43.55 171 22.1 171 0 171 C0 196.41 0 221.82 0 248 C-0.99 247.34 -1.98 246.68 -3 246 C-3.30264201 243.52746594 -3.40964849 241.30352939 -3.38818359 238.828125 C-3.39606903 237.72059875 -3.39606903 237.72059875 -3.40411377 236.59069824 C-3.41734638 234.14358531 -3.40856457 231.69711985 -3.3984375 229.25 C-3.40045731 227.55370966 -3.40336796 225.85742017 -3.40713501 224.16113281 C-3.41156277 220.60343165 -3.40511291 217.04595621 -3.39111328 213.48828125 C-3.374021 208.92138707 -3.38385979 204.35502174 -3.40183067 199.78814697 C-3.41265641 196.28462722 -3.40922778 192.78123345 -3.4014473 189.27770996 C-3.39944193 187.59354592 -3.40191633 185.90937054 -3.40888596 184.22521973 C-3.41648076 181.87379535 -3.40492496 179.5232348 -3.38818359 177.171875 C-3.39425629 176.47155151 -3.40032898 175.77122803 -3.40658569 175.04968262 C-3.38095093 173.11230469 -3.38095093 173.11230469 -3 170 C0.55129338 167.63247108 2.06457875 167.74707822 6.27563477 167.74121094 C7.57030167 167.73490662 8.86496857 167.72860229 10.1988678 167.72210693 C11.61304866 167.72568634 13.02722829 167.72978821 14.44140625 167.734375 C15.88964401 167.7330279 17.33788134 167.73108699 18.78611755 167.72857666 C21.81993926 167.72562843 24.85364316 167.72991391 27.88745117 167.73925781 C31.78050626 167.75066245 35.67328589 167.74408473 39.56633091 167.73211288 C42.55598537 167.72489478 45.54557423 167.72718179 48.53523064 167.73236847 C49.97098765 167.73370458 51.40675058 167.73205858 52.84250069 167.72740936 C54.84625259 167.72234411 56.85002533 167.73143003 58.85375977 167.74121094 C60.56560204 167.74359772 60.56560204 167.74359772 62.31202698 167.74603271 C65 168 65 168 67 170 C67.18769518 172.43937054 67.25198605 174.76414728 67.22705078 177.20361328 C67.22734283 177.9451767 67.22763489 178.68674011 67.22793579 179.45077515 C67.22653994 181.90740571 67.21096698 184.36373478 67.1953125 186.8203125 C67.19158327 188.52139114 67.18873587 190.22247192 67.18673706 191.92355347 C67.17909349 196.40510976 67.15943884 200.88653683 67.1373291 205.36804199 C67.11329323 210.74279612 67.10409313 216.1175934 67.09242249 221.49238586 C67.07301481 229.66168051 67.03469739 237.8306915 67 246 C87.79 245.01 87.79 245.01 109 244 C109 184.93 109 125.86 109 65 C106.03 65 103.06 65 100 65 C98.02 64.505 98.02 64.505 96 64 C96 53.44 96 42.88 96 32 C90.72 32 85.44 32 80 32 C79.34 31.67 78.68 31.34 78 31 C78 27.04 78 23.08 78 19 C76.659375 19.04125 75.31875 19.0825 73.9375 19.125 C69.30945189 19.26740148 66.86736729 18.39067637 62 17 C62 12.05 62 7.1 62 2 C42.2 2 22.4 2 2 2 C2 6.62 2 11.24 2 16 C1.34 16 0.68 16 0 16 C0 10.72 0 5.44 0 0 Z " fill="#2B22AE" transform="translate(554,220)"/>
<path d="M0 0 C15.51 0 31.02 0 47 0 C47 81.84 47 163.68 47 248 C31.16 248 15.32 248 -1 248 C-1 216.98 -1 185.96 -1 154 C-5.95 154 -10.9 154 -16 154 C-16 153.67 -16 153.34 -16 153 C-10.39 153 -4.78 153 1 153 C2.28257952 156.84773857 2.17721415 160.49885763 2.20532227 164.51049805 C2.21522186 165.37900391 2.22512146 166.24750977 2.23532104 167.14233398 C2.26692944 170.01543443 2.29169092 172.88855142 2.31640625 175.76171875 C2.33697634 177.75283744 2.35797283 179.74395177 2.37937927 181.73506165 C2.43459421 186.97767608 2.48400608 192.22032988 2.53222656 197.4630127 C2.59127405 203.75228435 2.65749887 210.04148399 2.72252655 216.33069611 C2.82052881 225.88708679 2.90938987 235.44352349 3 245 C16.86 245.33 30.72 245.66 45 246 C45 165.48 45 84.96 45 2 C31.635 2.495 31.635 2.495 18 3 C14.04 3 10.08 3 6 3 C4.68 3.33 3.36 3.66 2 4 C2.00444122 4.92263641 2.00888245 5.84527283 2.01345825 6.79586792 C2.05348113 15.47775903 2.08395694 24.1596193 2.10362434 32.84158134 C2.11407534 37.30539755 2.12825844 41.76913772 2.15087891 46.23291016 C2.17256052 50.53820674 2.1845587 54.84343005 2.18975449 59.14877701 C2.19345869 60.79387694 2.20069177 62.43897273 2.21146011 64.0840416 C2.22591299 66.38277704 2.22798058 68.68120713 2.22705078 70.97998047 C2.231492 72.2901413 2.23593323 73.60030212 2.24050903 74.95016479 C2 78 2 78 0 80 C-2.9093558 80.14517744 -5.719946 80.18630796 -8.625 80.125 C-9.42679688 80.11597656 -10.22859375 80.10695313 -11.0546875 80.09765625 C-13.03658523 80.07406223 -15.01832981 80.03819065 -17 80 C-17 79.34 -17 78.68 -17 78 C-11.39 78 -5.78 78 0 78 C0 52.26 0 26.52 0 0 Z " fill="#1E15AB" transform="translate(1141,220)"/>
<path d="M0 0 C37.62 0 75.24 0 114 0 C114 15.18 114 30.36 114 46 C103.11 46 92.22 46 81 46 C81 97.48 81 148.96 81 202 C80.34 202 79.68 202 79 202 C79 150.19 79 98.38 79 45 C89.89 45 100.78 45 112 45 C112 30.48 112 15.96 112 1 C75.7 1 39.4 1 2 1 C2 15.52 2 30.04 2 45 C12.89 45 23.78 45 35 45 C36.38280336 47.76560672 36.12277171 49.99079526 36.12025452 53.08694458 C36.12162918 54.38547363 36.12300385 55.68400269 36.12442017 57.0218811 C36.12088077 58.46917747 36.11724596 59.91647361 36.11352539 61.36376953 C36.11324345 62.8812866 36.11340139 64.39880381 36.1139679 65.9163208 C36.1142556 70.04418177 36.10836326 74.17201387 36.10139394 78.29986811 C36.09515587 82.61070771 36.09455624 86.92154793 36.09336853 91.23239136 C36.09025656 99.39925322 36.08204496 107.56610174 36.07201904 115.73295772 C36.06085376 125.02907692 36.05534641 134.32519674 36.05032361 143.62132096 C36.03986224 162.74755488 36.02226538 181.87377637 36 201 C35.01 201.33 34.02 201.66 33 202 C33 150.85 33 99.7 33 47 C22.11 47 11.22 47 0 47 C0 31.49 0 15.98 0 0 Z " fill="#2019A1" transform="translate(885,220)"/>
<path d="M0 0 C42.24 0 84.48 0 128 0 C128 4.95 128 9.9 128 15 C127.34 15 126.68 15 126 15 C125.505 9.06 125.505 9.06 125 3 C84.41 2.67 43.82 2.34 2 2 C2.33 82.19 2.66 162.38 3 245 C42.93 245 82.86 245 124 245 C125.81115956 243.18884044 125.38199448 240.38721773 125.5625 237.9375 C125.64628906 236.83277344 125.73007813 235.72804688 125.81640625 234.58984375 C125.87699219 233.73519531 125.93757813 232.88054687 126 232 C126.66 232 127.32 232 128 232 C128 237.28 128 242.56 128 248 C85.76 248 43.52 248 0 248 C0 166.16 0 84.32 0 0 Z " fill="#1F16A6" transform="translate(1217,220)"/>
<path d="M0 0 C0.33 0 0.66 0 1 0 C1 56.1 1 112.2 1 170 C6.61 170 12.22 170 18 170 C19.83219646 171.83219646 19.23901328 174.75713741 19.31640625 177.22265625 C19.35830078 178.48271484 19.40019531 179.74277344 19.44335938 181.04101562 C19.48317596 182.38150736 19.52288814 183.7220022 19.5625 185.0625 C19.60568042 186.40691523 19.64929456 187.7513166 19.69335938 189.09570312 C19.79985283 192.39700013 19.9004675 195.69848579 20 199 C24.62 199 29.24 199 34 199 C35.89828918 203.74572296 37 207.88549514 37 213 C37.59167969 212.96519531 38.18335938 212.93039062 38.79296875 212.89453125 C43.65404565 212.7280017 47.15341035 212.63423405 51 216 C52.17338277 219.20396732 51.9596858 221.89598659 51.5625 225.25 C51.46066406 226.14203125 51.35882812 227.0340625 51.25390625 227.953125 C51.17011719 228.62859375 51.08632813 229.3040625 51 230 C51.98742187 229.97679687 52.97484375 229.95359375 53.9921875 229.9296875 C55.27351562 229.91164063 56.55484375 229.89359375 57.875 229.875 C59.15117188 229.85179687 60.42734375 229.82859375 61.7421875 229.8046875 C65 230 65 230 67 232 C67.28034724 236.67619188 67.08523334 241.31216611 67 246 C75.91 245.67 84.82 245.34 94 245 C94.495 238.565 94.495 238.565 95 232 C97.77042109 229.22957891 99.76533805 229.60203894 103.625 229.375 C105.40777344 229.26285156 105.40777344 229.26285156 107.2265625 229.1484375 C108.14179687 229.09945312 109.05703125 229.05046875 110 229 C110.06058594 228.14535156 110.12117187 227.29070312 110.18359375 226.41015625 C110.26738281 225.30542969 110.35117187 224.20070313 110.4375 223.0625 C110.55931641 221.40927734 110.55931641 221.40927734 110.68359375 219.72265625 C111 217 111 217 112 216 C114.86267567 215.92674832 117.700719 215.90761795 120.5625 215.9375 C121.36880859 215.94201172 122.17511719 215.94652344 123.00585938 215.95117188 C125.00393756 215.96299482 127.00197783 215.98093086 129 216 C129 211.38 129 206.76 129 202 C129.33 202 129.66 202 130 202 C130 206.95 130 211.9 130 217 C124.72 217 119.44 217 114 217 C114 222.28 114 227.56 114 233 C108.72 233 103.44 233 98 233 C98 237.95 98 242.9 98 248 C87.11 248 76.22 248 65 248 C65 243.05 65 238.1 65 233 C59.72 233 54.44 233 49 233 C49 227.72 49 222.44 49 217 C43.39 217 37.78 217 32 217 C32 212.05 32 207.1 32 202 C26.72 202 21.44 202 16 202 C16 191.77 16 181.54 16 171 C10.72 171 5.44 171 0 171 C0 114.57 0 58.14 0 0 Z " fill="#342DAA" transform="translate(695,220)"/>
<path d="M0 0 C16.5 0 33 0 50 0 C53.60874295 6.01457158 53.27088853 8.22778683 53 15 C56.96 15 60.92 15 65 15 C65.495 16.485 65.495 16.485 66 18 C66.66 18 67.32 18 68 18 C69.39389927 41.39256435 68.97558205 64.78444525 68.703125 88.20385742 C68.63590111 93.98284035 68.57901716 99.76187307 68.52509499 105.54099369 C68.48244691 110.01120664 68.43499858 114.48135822 68.38599777 118.95150566 C68.36309201 121.08584597 68.34158355 123.22020174 68.32149124 125.35457039 C68.292891 128.30685295 68.25795342 131.258991 68.22119141 134.21118164 C68.2138649 135.09246231 68.20653839 135.97374298 68.19898987 136.88172913 C68.11434144 142.88565856 68.11434144 142.88565856 67 144 C64.30345146 144.07319621 61.63308542 144.09242537 58.9375 144.0625 C58.17888672 144.05798828 57.42027344 144.05347656 56.63867188 144.04882812 C54.75908129 144.0370068 52.87953101 144.01907078 51 144 C51.01160156 145.07121094 51.02320313 146.14242187 51.03515625 147.24609375 C51.04453299 148.64322743 51.05363331 150.04036299 51.0625 151.4375 C51.07087891 152.14455078 51.07925781 152.85160156 51.08789062 153.58007812 C51.09653588 155.38693559 51.05220011 157.19387603 51 159 C50.67 159.33 50.34 159.66 50 160 C33.5 160 17 160 0 160 C0 107.2 0 54.4 0 0 Z M1 2 C1 53.48 1 104.96 1 158 C17.17 158 33.34 158 50 158 C50 152.72 50 147.44 50 142 C55.28 142 60.56 142 66 142 C66 101.08 66 60.16 66 18 C60.72 18 55.44 18 50 18 C50 12.72 50 7.44 50 2 C33.83 2 17.66 2 1 2 Z " fill="#2318AC" transform="translate(1264,264)"/>
<path d="M0 0 C14.85 0 29.7 0 45 0 C45.495 6.93 45.495 6.93 46 14 C51.28 14.33 56.56 14.66 62 15 C62 24.9 62 34.8 62 45 C61.67 45 61.34 45 61 45 C61 35.43 61 25.86 61 16 C55.77936725 16.03957157 55.77936725 16.03957157 50.55883789 16.09008789 C48.70566241 16.09723945 46.85250692 16.0502852 45 16 C44 15 44 15 43.90234375 11.83984375 C43.91394531 10.55207031 43.92554688 9.26429688 43.9375 7.9375 C43.94652344 6.64714844 43.95554687 5.35679687 43.96484375 4.02734375 C43.97644531 3.02832031 43.98804688 2.02929688 44 1 C42.40285156 1.10828125 42.40285156 1.10828125 40.7734375 1.21875 C29.40562378 1.95912679 18.14532783 2.46038022 6.77270508 1.49169922 C5.69177078 1.40008514 4.61083649 1.30847107 3.49714661 1.21408081 C2.67308823 1.14343414 1.84902985 1.07278748 1 1 C1.00607553 2.16729959 1.01215105 3.33459919 1.01841068 4.5372715 C1.16263412 32.29309453 1.30131758 60.04894101 1.4332476 87.80482528 C1.44951714 91.22665455 1.46583308 94.64848359 1.48217773 98.0703125 C1.48705712 99.09208016 1.48705712 99.09208016 1.49203508 100.13448958 C1.5447054 111.1407756 1.6011291 122.1470393 1.6589582 133.15329929 C1.71828298 144.46025359 1.77345241 155.76722166 1.82505554 167.07421434 C1.85414426 173.41946504 1.88508399 179.76469426 1.92053413 186.10991287 C1.9538854 192.09011397 1.98218035 198.0703183 2.00670624 204.0505619 C2.01654774 206.23776847 2.02818876 208.42496784 2.04183006 210.61215401 C2.0602842 213.61567398 2.07205 216.61915348 2.08229065 219.62271118 C2.09249633 220.89808225 2.09249633 220.89808225 2.10290819 222.19921839 C2.11619452 229.54926536 1.52859323 236.59969476 1 244 C14.86 244 28.72 244 43 244 C43.02505615 239.3704126 43.0501123 234.7408252 43.07592773 229.97094727 C43.15921106 214.7158188 43.24787056 199.46072513 43.33933926 184.20564365 C43.39469232 174.95180607 43.44817768 165.69796464 43.49731445 156.4440918 C43.54013083 148.38141381 43.58640229 140.31876445 43.63687855 132.25613064 C43.66350008 127.9843316 43.68835357 123.71253832 43.70907402 119.44070625 C43.72860849 115.42461261 43.75274249 111.40857357 43.78049088 107.39252853 C43.78987828 105.91424357 43.79754744 104.43594661 43.80341911 102.95764351 C43.81165161 100.94798058 43.82651723 98.93834801 43.84178162 96.9287262 C43.84823417 95.80137338 43.85468672 94.67402056 43.8613348 93.51250553 C44 91 44 91 45 90 C47.80177966 89.89972578 50.57349112 89.86126711 53.375 89.875 C54.15617187 89.87113281 54.93734375 89.86726563 55.7421875 89.86328125 C59.0765946 89.86899085 61.81606986 89.93868995 65 91 C65 100.9 65 110.8 65 121 C69.62 121 74.24 121 79 121 C79 121.66 79 122.32 79 123 C73.72 123 68.44 123 63 123 C63 112.77 63 102.54 63 92 C57.06 92 51.12 92 45 92 C45 142.82 45 193.64 45 246 C30.15 246 15.3 246 0 246 C0 164.82 0 83.64 0 0 Z " fill="#2116BD" transform="translate(1029,221)"/>
<path d="M0 0 C4.95 0.33 9.9 0.66 15 1 C15 1.33 15 1.66 15 2 C11.37 2.33 7.74 2.66 4 3 C3.23449976 11.50583388 2.87183704 19.90750176 2.9375 28.4453125 C2.94613936 30.94620708 2.95459273 33.44710231 2.96289062 35.94799805 C2.96898355 37.28828001 2.97525296 38.62856119 2.98168945 39.96884155 C3.0155997 47.30080867 3.0264989 54.63280569 3.03125 61.96484375 C3.03179886 62.76162096 3.03234772 63.55839817 3.03291321 64.37932014 C3.04172364 88.48314312 2.75867062 112.58536716 2.5 136.6875 C2.48797546 137.81483803 2.47595093 138.94217606 2.46356201 140.10367584 C2.31452479 154.06918361 2.1582803 168.03459009 2 182 C23.285 182.495 23.285 182.495 45 183 C45.33 158.25 45.66 133.5 46 108 C46.33 108 46.66 108 47 108 C47 133.41 47 158.82 47 185 C31.49 185 15.98 185 0 185 C0 123.95 0 62.9 0 0 Z " fill="#1E15AC" transform="translate(118,283)"/>
<path d="M0 0 C0.70128525 0.00187317 1.4025705 0.00374634 2.12510681 0.00567627 C3.60534429 0.01239072 5.08556421 0.02629336 6.56567383 0.046875 C8.83496535 0.07805796 11.10356223 0.08784949 13.37304688 0.09375 C24.44983785 0.16437205 24.44983785 0.16437205 26.77734375 1.328125 C27.41015625 3.98046875 27.41015625 3.98046875 27.90234375 7.265625 C28.15371094 8.88791016 28.15371094 8.88791016 28.41015625 10.54296875 C28.77734375 13.328125 28.77734375 13.328125 28.77734375 15.328125 C29.76476562 15.35390625 30.7521875 15.3796875 31.76953125 15.40625 C33.69152344 15.49132812 33.69152344 15.49132812 35.65234375 15.578125 C36.92851563 15.62453125 38.2046875 15.6709375 39.51953125 15.71875 C40.59460938 15.91984375 41.6696875 16.1209375 42.77734375 16.328125 C44.71980928 19.18280112 45.01442254 21.4817982 44.94433594 24.88134766 C44.93061951 25.77552399 44.91690308 26.66970032 44.902771 27.5909729 C44.87684875 28.54837372 44.85092651 29.50577454 44.82421875 30.4921875 C44.79379486 31.97481583 44.79379486 31.97481583 44.76275635 33.48739624 C44.71722938 35.57374656 44.66646504 37.65998824 44.61083984 39.74609375 C44.52748314 42.94777102 44.46573207 46.14936256 44.40625 49.3515625 C44.35936714 51.37763453 44.31123299 53.40367807 44.26171875 55.4296875 C44.23498077 56.87186142 44.23498077 56.87186142 44.20770264 58.34317017 C44.16821503 59.67497818 44.16821503 59.67497818 44.12792969 61.03369141 C44.10857361 61.81660553 44.08921753 62.59951965 44.0692749 63.40615845 C43.77734375 65.328125 43.77734375 65.328125 41.77734375 67.328125 C39.08937073 67.58209229 39.08937073 67.58209229 35.63110352 67.58691406 C34.33958878 67.59321838 33.04807404 67.59952271 31.71742249 67.60601807 C30.30119694 67.60243802 28.88497264 67.59833599 27.46875 67.59375 C26.02147862 67.59509683 24.57420769 67.59703751 23.12693787 67.59954834 C20.09133605 67.60249973 17.05585183 67.59820219 14.02026367 67.58886719 C10.12839914 67.57748271 6.23681075 67.5840255 2.3449564 67.59601212 C-0.6447406 67.60323905 -3.63437215 67.60093879 -6.62407112 67.59575653 C-8.05900162 67.59442181 -9.49393805 67.59606156 -10.92886162 67.60071564 C-12.93491376 67.60579312 -14.9409867 67.59668236 -16.94702148 67.58691406 C-18.08904526 67.58532288 -19.23106903 67.58373169 -20.40769958 67.58209229 C-23.22265625 67.328125 -23.22265625 67.328125 -26.22265625 65.328125 C-26.59687805 63.31677246 -26.59687805 63.31677246 -26.5949707 60.81835938 C-26.60119949 59.88399048 -26.60742828 58.94962158 -26.61384583 57.98693848 C-26.60463608 56.97546753 -26.59542633 55.96399658 -26.5859375 54.921875 C-26.586436 53.88623413 -26.58693451 52.85059326 -26.58744812 51.78356934 C-26.58510479 49.59120772 -26.57536116 47.39884357 -26.55883789 45.20654297 C-26.53525266 41.84187888 -26.53827417 38.47800692 -26.54492188 35.11328125 C-26.5393452 32.98697442 -26.53223538 30.86067094 -26.5234375 28.734375 C-26.52434891 27.72290405 -26.52526031 26.71143311 -26.52619934 25.66931152 C-26.51666733 24.73494263 -26.50713531 23.80057373 -26.49731445 22.83789062 C-26.49040337 21.60117615 -26.49040337 21.60117615 -26.48335266 20.33947754 C-26.22265625 18.328125 -26.22265625 18.328125 -24.22265625 16.328125 C-20.96484375 16.1328125 -20.96484375 16.1328125 -17.09765625 16.203125 C-15.17566406 16.23019531 -15.17566406 16.23019531 -13.21484375 16.2578125 C-11.73371094 16.29261719 -11.73371094 16.29261719 -10.22265625 16.328125 C-10.55265625 15.338125 -10.88265625 14.348125 -11.22265625 13.328125 C-11.20703125 10.953125 -11.20703125 10.953125 -10.97265625 8.328125 C-10.905625 7.461875 -10.83859375 6.595625 -10.76953125 5.703125 C-9.38813013 -0.29610271 -5.5380216 -0.03944315 0 0 Z M-7.22265625 3.328125 C-7.22265625 8.608125 -7.22265625 13.888125 -7.22265625 19.328125 C-12.50265625 19.328125 -17.78265625 19.328125 -23.22265625 19.328125 C-23.22265625 34.508125 -23.22265625 49.688125 -23.22265625 65.328125 C-1.77265625 65.328125 19.67734375 65.328125 41.77734375 65.328125 C41.77734375 50.148125 41.77734375 34.968125 41.77734375 19.328125 C36.16734375 19.328125 30.55734375 19.328125 24.77734375 19.328125 C24.77734375 14.048125 24.77734375 8.768125 24.77734375 3.328125 C14.21734375 3.328125 3.65734375 3.328125 -7.22265625 3.328125 Z " fill="#291FAF" transform="translate(577.22265625,278.671875)"/>
<path d="M0 0 C0.33 0 0.66 0 1 0 C1 4.95 1 9.9 1 15 C2.20398438 14.97679687 3.40796875 14.95359375 4.6484375 14.9296875 C6.22395215 14.91093137 7.79947348 14.89273101 9.375 14.875 C10.1690625 14.85824219 10.963125 14.84148437 11.78125 14.82421875 C13.85492015 14.80664527 15.92883241 14.89664832 18 15 C20 17 20 17 20.1953125 19.8203125 C20.17210937 20.91085937 20.14890625 22.00140625 20.125 23.125 C20.10695313 24.22070312 20.08890625 25.31640625 20.0703125 26.4453125 C20.04710937 27.28835938 20.02390625 28.13140625 20 29 C21.37285156 28.96519531 21.37285156 28.96519531 22.7734375 28.9296875 C23.96195312 28.91164063 25.15046875 28.89359375 26.375 28.875 C27.55835938 28.85179687 28.74171875 28.82859375 29.9609375 28.8046875 C33 29 33 29 35 31 C35.3347168 33.18188477 35.3347168 33.18188477 35.44921875 35.94140625 C35.49312744 36.98514404 35.53703613 38.02888184 35.58227539 39.10424805 C35.61699951 40.24547119 35.65172363 41.38669434 35.6875 42.5625 C35.7280249 43.73659424 35.7685498 44.91068848 35.81030273 46.12036133 C36.22519473 61.10235536 35.56866711 76.02509955 35 91 C49.19 91 63.38 91 78 91 C78 66.91 78 42.82 78 18 C73.38 18 68.76 18 64 18 C61.64880601 14.47320901 61.78556548 12.97120515 61.875 8.8125 C61.89304687 7.72582031 61.91109375 6.63914062 61.9296875 5.51953125 C61.95289063 4.68808594 61.97609375 3.85664063 62 3 C61.39671875 3.0721875 60.7934375 3.144375 60.171875 3.21875 C59.37265625 3.3115625 58.5734375 3.404375 57.75 3.5 C56.96109375 3.5928125 56.1721875 3.685625 55.359375 3.78125 C53 4 53 4 49 4 C48.505 2.02 48.505 2.02 48 0 C53.28 0 58.56 0 64 0 C64 5.28 64 10.56 64 16 C69.28 16 74.56 16 80 16 C80 41.41 80 66.82 80 93 C64.49 93 48.98 93 33 93 C33 72.54 33 52.08 33 31 C27.39 31 21.78 31 16 31 C16 26.05 16 21.1 16 16 C10.72 16 5.44 16 0 16 C0 10.72 0 5.44 0 0 Z " fill="#2017AD" transform="translate(397,375)"/>
<path d="M0 0 C15.84 0 31.68 0 48 0 C48 56.43 48 112.86 48 171 C42.72 171 37.44 171 32 171 C32 181.23 32 191.46 32 202 C26.72 202 21.44 202 16 202 C16 201.67 16 201.34 16 201 C20.95 201 25.9 201 31 201 C30.98839844 198.77378906 30.97679687 196.54757812 30.96484375 194.25390625 C30.95705278 192.10603986 30.95097625 189.95817503 30.94506836 187.81030273 C30.94002879 186.31355082 30.93319713 184.81680384 30.92456055 183.32006836 C30.91247841 181.17300193 30.90676809 179.02600038 30.90234375 176.87890625 C30.89710693 175.5854126 30.89187012 174.29191895 30.88647461 172.95922852 C31 170 31 170 32 169 C36.95 169 41.9 169 47 169 C47 113.56 47 58.12 47 1 C31.82 1 16.64 1 1 1 C1 52.15 1 103.3 1 156 C-3.48206302 158.24103151 -8.98890121 157 -14 157 C-14 166.9 -14 176.8 -14 187 C-17.5408214 188.1802738 -20.62355373 188.0238386 -24.29296875 187.87890625 C-24.99899734 187.85529526 -25.70502594 187.83168427 -26.43244934 187.80735779 C-28.68434507 187.73087055 -30.93588387 187.64678253 -33.1875 187.5625 C-34.71547741 187.50926432 -36.24347216 187.45652401 -37.77148438 187.40429688 C-41.51454835 187.27527576 -45.25731019 187.13943788 -49 187 C-49 186.67 -49 186.34 -49 186 C-38.11 186 -27.22 186 -16 186 C-16 175.77 -16 165.54 -16 155 C-10.72 155 -5.44 155 0 155 C0 103.85 0 52.7 0 0 Z " fill="#27218F" transform="translate(809,220)"/>
<path d="M0 0 C1.47057839 0.00031709 2.94118001 0.01164091 4.41162109 0.03173828 C5.18565277 0.03456818 5.95968445 0.03739807 6.75717163 0.04031372 C9.23329016 0.05152325 11.70904909 0.07662875 14.18505859 0.10205078 C15.86213671 0.1120796 17.53922049 0.12120562 19.21630859 0.12939453 C23.33103082 0.15146504 27.44548371 0.18599977 31.56005859 0.22705078 C33.00213801 3.11120961 32.65400746 5.64426607 32.62255859 8.85205078 C32.61353516 10.04056641 32.60451172 11.22908203 32.59521484 12.45361328 C32.58361328 13.36884766 32.57201172 14.28408203 32.56005859 15.22705078 C33.54748047 15.20384766 34.53490234 15.18064453 35.55224609 15.15673828 C36.83357422 15.13869141 38.11490234 15.12064453 39.43505859 15.10205078 C41.34931641 15.06724609 41.34931641 15.06724609 43.30224609 15.03173828 C46.56005859 15.22705078 46.56005859 15.22705078 48.56005859 17.22705078 C48.80729675 19.28309631 48.80729675 19.28309631 48.80297852 21.84448242 C48.80759346 23.28090843 48.80759346 23.28090843 48.81230164 24.74635315 C48.80152336 26.30107582 48.80152336 26.30107582 48.79052734 27.88720703 C48.79006912 28.94741562 48.7896109 30.00762421 48.78913879 31.09996033 C48.7861143 33.34358844 48.77822215 35.58721441 48.76586914 37.83081055 C48.74761593 41.27872087 48.74535938 44.72636282 48.74560547 48.17431641 C48.74069036 50.34944895 48.73486207 52.52457967 48.72802734 54.69970703 C48.72691452 55.73821304 48.7258017 56.77671906 48.72465515 57.84669495 C48.7182753 58.80116013 48.71189545 59.75562531 48.70532227 60.73901367 C48.70151047 61.58347549 48.69769867 62.42793732 48.69377136 63.29798889 C48.56005859 65.22705078 48.56005859 65.22705078 47.56005859 66.22705078 C45.52080815 66.33696295 43.47772191 66.37617549 41.43554688 66.38818359 C40.12393585 66.39779114 38.81232483 66.40739868 37.46096802 66.41729736 C36.01743747 66.42214493 34.57390491 66.42642386 33.13037109 66.43017578 C31.65925086 66.43592489 30.18813066 66.44168265 28.7170105 66.44744873 C25.62839406 66.45796829 22.53980372 66.46380457 19.45117188 66.46728516 C15.49084228 66.47276953 11.53085657 66.49679195 7.57063484 66.52525711 C4.53033436 66.5438699 1.4901169 66.54908837 -1.55023575 66.55062103 C-3.01030481 66.5536516 -4.47037227 66.56169373 -5.93038559 66.57480621 C-7.97240165 66.59183516 -10.01455885 66.58814623 -12.05664062 66.58349609 C-13.80084793 66.58896454 -13.80084793 66.58896454 -15.58029175 66.59454346 C-18.43994141 66.22705078 -18.43994141 66.22705078 -20.31761169 64.98997498 C-21.75515917 62.73191551 -21.80246555 61.33415477 -21.78051758 58.66381836 C-21.78029099 57.74309036 -21.78006439 56.82236237 -21.77983093 55.87373352 C-21.76434708 54.88302353 -21.74886322 53.89231354 -21.73291016 52.87158203 C-21.72866531 51.85480881 -21.72442047 50.83803558 -21.720047 49.79045105 C-21.70324138 46.53988266 -21.66558523 43.28993208 -21.62744141 40.03955078 C-21.61239703 37.83708577 -21.59870819 35.63461105 -21.58642578 33.43212891 C-21.55333176 28.03022506 -21.50311363 22.62868206 -21.43994141 17.22705078 C-20.77994141 17.22705078 -20.11994141 17.22705078 -19.43994141 17.22705078 C-19.43994141 16.56705078 -19.43994141 15.90705078 -19.43994141 15.22705078 C-14.81994141 15.22705078 -10.19994141 15.22705078 -5.43994141 15.22705078 C-5.48119141 13.12330078 -5.52244141 11.01955078 -5.56494141 8.85205078 C-5.63525391 5.26611328 -5.63525391 5.26611328 -5.43994141 2.22705078 C-3.43994141 0.22705078 -3.43994141 0.22705078 0 0 Z M-2.43994141 2.22705078 C-2.43994141 7.50705078 -2.43994141 12.78705078 -2.43994141 18.22705078 C-7.71994141 18.22705078 -12.99994141 18.22705078 -18.43994141 18.22705078 C-18.43994141 33.40705078 -18.43994141 48.58705078 -18.43994141 64.22705078 C3.01005859 64.22705078 24.46005859 64.22705078 46.56005859 64.22705078 C46.56005859 49.04705078 46.56005859 33.86705078 46.56005859 18.22705078 C40.95005859 18.22705078 35.34005859 18.22705078 29.56005859 18.22705078 C29.56005859 12.94705078 29.56005859 7.66705078 29.56005859 2.22705078 C19.00005859 2.22705078 8.44005859 2.22705078 -2.43994141 2.22705078 Z " fill="#2D23B4" transform="translate(184.43994140625,279.77294921875)"/>
<path d="M0 0 C0.33 0 0.66 0 1 0 C1 15.18 1 30.36 1 46 C12.22 45.67 23.44 45.34 35 45 C36.38280336 47.76560672 36.12277171 49.99079526 36.12025452 53.08694458 C36.12162918 54.38547363 36.12300385 55.68400269 36.12442017 57.0218811 C36.12088077 58.46917747 36.11724596 59.91647361 36.11352539 61.36376953 C36.11324345 62.8812866 36.11340139 64.39880381 36.1139679 65.9163208 C36.1142556 70.04418177 36.10836326 74.17201387 36.10139394 78.29986811 C36.09515587 82.61070771 36.09455624 86.92154793 36.09336853 91.23239136 C36.09025656 99.39925322 36.08204496 107.56610174 36.07201904 115.73295772 C36.06085376 125.02907692 36.05534641 134.32519674 36.05032361 143.62132096 C36.03986224 162.74755488 36.02226538 181.87377637 36 201 C35.01 201.33 34.02 201.66 33 202 C33 150.85 33 99.7 33 47 C22.11 47 11.22 47 0 47 C0 31.49 0 15.98 0 0 Z " fill="#382FB9" transform="translate(885,220)"/>
<path d="M0 0 C4.95 0 9.9 0 15 0 C15 4.95 15 9.9 15 15 C20.61 15 26.22 15 32 15 C32 76.38 32 137.76 32 201 C26.72 201 21.44 201 16 201 C16 200.34 16 199.68 16 199 C20.62 199 25.24 199 30 199 C30 138.94 30 78.88 30 17 C25.05 17 20.1 17 15 17 C14 16 14 16 13.90234375 12.62109375 C13.90901631 11.22652923 13.92097468 9.83198257 13.9375 8.4375 C13.94201172 7.72658203 13.94652344 7.01566406 13.95117188 6.28320312 C13.96299136 4.52209987 13.98092737 2.76103964 14 1 C9.38 1 4.76 1 0 1 C0 0.67 0 0.34 0 0 Z " fill="#3E36B0" transform="translate(1346,236)"/>
<path d="M0 0 C0.33 0 0.66 0 1 0 C1 5.28 1 10.56 1 16 C-4.28 16 -9.56 16 -15 16 C-14.505 24.415 -14.505 24.415 -14 33 C-18.92174967 34.64058322 -21.14675169 35.11286624 -26 35 C-27.76545934 36.76545934 -27.19259335 39.31957502 -27.24609375 41.71484375 C-27.27896484 42.87564453 -27.31183594 44.03644531 -27.34570312 45.23242188 C-27.406802 47.69847632 -27.46410615 50.16462776 -27.51757812 52.63085938 C-27.55173828 53.79294922 -27.58589844 54.95503906 -27.62109375 56.15234375 C-27.6461499 57.22476318 -27.67120605 58.29718262 -27.69702148 59.40209961 C-28 62 -28 62 -30 64 C-35.28 64 -40.56 64 -46 64 C-46.33 124.72 -46.66 185.44 -47 248 C-47.33 248 -47.66 248 -48 248 C-48 186.62 -48 125.24 -48 62 C-42.72 62 -37.44 62 -32 62 C-32 51.77 -32 41.54 -32 31 C-26.72 31 -21.44 31 -16 31 C-16 25.72 -16 20.44 -16 15 C-10.72 15 -5.44 15 0 15 C0 10.05 0 5.1 0 0 Z " fill="#6A63C8" transform="translate(165,220)"/>
<path d="M0 0 C0.33 0 0.66 0 1 0 C1 51.15 1 102.3 1 155 C6.28 155 11.56 155 17 155 C17 165.23 17 175.46 17 186 C16.34 186 15.68 186 15 186 C15 176.43 15 166.86 15 157 C9.72 157 4.44 157 -1 157 C-1.02312402 136.82505325 -1.04098182 116.65011023 -1.05181217 96.47515297 C-1.05697399 87.10810521 -1.06401451 77.74106582 -1.07543945 68.37402344 C-1.08538978 60.21211058 -1.09185426 52.05020379 -1.09408849 43.88828504 C-1.09539501 39.56445845 -1.09847713 35.2406492 -1.10573006 30.91682816 C-1.11249575 26.85069198 -1.11461583 22.78458037 -1.11310768 18.7184391 C-1.11338376 17.22282465 -1.11538564 15.72720941 -1.11920547 14.23159981 C-1.1241512 12.196042 -1.12239555 10.16047114 -1.12025452 8.12490845 C-1.12117631 6.98372873 -1.1220981 5.84254902 -1.12304783 4.6667881 C-1 2 -1 2 0 0 Z " fill="#4F48BD" transform="translate(743,220)"/>
<path d="M0 0 C0.33 0 0.66 0 1 0 C1 56.1 1 112.2 1 170 C6.61 170 12.22 170 18 170 C19.83219646 171.83219646 19.23901328 174.75713741 19.31640625 177.22265625 C19.35830078 178.48271484 19.40019531 179.74277344 19.44335938 181.04101562 C19.48317596 182.38150736 19.52288814 183.7220022 19.5625 185.0625 C19.60568042 186.40691523 19.64929456 187.7513166 19.69335938 189.09570312 C19.79985283 192.39700013 19.9004675 195.69848579 20 199 C24.62 199 29.24 199 34 199 C34 204.28 34 209.56 34 215 C38.62 215 43.24 215 48 215 C48.33 215.66 48.66 216.32 49 217 C43.39 217 37.78 217 32 217 C32 212.05 32 207.1 32 202 C26.72 202 21.44 202 16 202 C16 191.77 16 181.54 16 171 C10.72 171 5.44 171 0 171 C0 114.57 0 58.14 0 0 Z " fill="#564EB2" transform="translate(695,220)"/>
<path d="M0 0 C8.57077598 -0.04628427 17.14149997 -0.08184919 25.71236992 -0.10362434 C29.69191773 -0.11407386 33.67138021 -0.12825422 37.65087891 -0.15087891 C41.48933886 -0.17256585 45.32771659 -0.18455982 49.16623306 -0.18975449 C50.63270487 -0.19345773 52.09917205 -0.200689 53.56560898 -0.21146011 C55.61529106 -0.22592019 57.66463082 -0.22798029 59.71435547 -0.22705078 C60.88239716 -0.231492 62.05043884 -0.23593323 63.25387573 -0.24050903 C66 0 66 0 68 2 C67.625 4.125 67.625 4.125 67 6 C67 5.01 67 4.02 67 3 C45.22 3 23.44 3 1 3 C1 28.41 1 53.82 1 80 C0.67 80 0.34 80 0 80 C-0.495 77.525 -0.495 77.525 -1 75 C-1.33 75 -1.66 75 -2 75 C-2 50.91 -2 26.82 -2 2 C-1.34 2 -0.68 2 0 2 C0 1.34 0 0.68 0 0 Z " fill="#3B33BA" transform="translate(165,388)"/>
<path d="M0 0 C21.45 0 42.9 0 65 0 C65 5.28 65 10.56 65 16 C69.95 16 74.9 16 80 16 C80 21.61 80 27.22 80 33 C79.34 32.67 78.68 32.34 78 32 C77.3671875 29.05859375 77.3671875 29.05859375 76.875 25.4375 C76.70742187 24.23996094 76.53984375 23.04242188 76.3671875 21.80859375 C76.24601562 20.88175781 76.12484375 19.95492187 76 19 C75.24074219 18.96261719 74.48148437 18.92523438 73.69921875 18.88671875 C72.70535156 18.82097656 71.71148437 18.75523437 70.6875 18.6875 C69.70136719 18.62949219 68.71523437 18.57148438 67.69921875 18.51171875 C65 18 65 18 63.15625 16.875 C60.56034706 12.66542767 61.85781778 6.78680125 62 2 C61.25476074 2.0714624 60.50952148 2.1429248 59.74169922 2.21655273 C48.20134685 3.19058365 36.69766506 3.11208377 25.125 3.0625 C23.06901151 3.05747274 21.01302183 3.05291201 18.95703125 3.04882812 C13.97132408 3.03792482 8.9856756 3.02072847 4 3 C2.88870931 6.33387207 2.65184903 9.35937408 2.37890625 12.84375 C2 15 2 15 0 18 C-3.2578125 18.29296875 -3.2578125 18.29296875 -7.125 18.1875 C-8.40632812 18.16042969 -9.68765625 18.13335937 -11.0078125 18.10546875 C-11.99523437 18.07066406 -12.98265625 18.03585938 -14 18 C-14 22.29 -14 26.58 -14 31 C-14.66 31 -15.32 31 -16 31 C-16 26.05 -16 21.1 -16 16 C-10.72 16 -5.44 16 0 16 C0 10.72 0 5.44 0 0 Z " fill="#2219C3" transform="translate(166,220)"/>
<path d="M0 0 C21.45 0 42.9 0 65 0 C65 4.95 65 9.9 65 15 C70.28 15 75.56 15 81 15 C81 20.28 81 25.56 81 31 C86.28 31 91.56 31 97 31 C97 41.23 97 51.46 97 62 C96.67 62 96.34 62 96 62 C96 52.1 96 42.2 96 32 C90.82441015 32.03951482 90.82441015 32.03951482 85.64892578 32.09008789 C80.22222222 32.11111111 80.22222222 32.11111111 78 31 C78 27.04 78 23.08 78 19 C76.659375 19.04125 75.31875 19.0825 73.9375 19.125 C69.30945189 19.26740148 66.86736729 18.39067637 62 17 C62 12.05 62 7.1 62 2 C42.2 2 22.4 2 2 2 C2 6.62 2 11.24 2 16 C1.34 16 0.68 16 0 16 C0 10.72 0 5.44 0 0 Z " fill="#3A32AD" transform="translate(554,220)"/>
<path d="M0 0 C16.5 0 33 0 50 0 C53.60874295 6.01457158 53.27088853 8.22778683 53 15 C56.96 15 60.92 15 65 15 C65.495 16.485 65.495 16.485 66 18 C60.72 18 55.44 18 50 18 C50 12.72 50 7.44 50 2 C33.83 2 17.66 2 1 2 C1 53.48 1 104.96 1 158 C0.67 158 0.34 158 0 158 C0 105.86 0 53.72 0 0 Z " fill="#473FB5" transform="translate(1264,264)"/>
<path d="M0 0 C0.33 0 0.66 0 1 0 C1 4.95 1 9.9 1 15 C6.28 15 11.56 15 17 15 C17 45.69 17 76.38 17 108 C11.39 108 5.78 108 0 108 C0 112.95 0 117.9 0 123 C-4.95 123 -9.9 123 -15 123 C-15 122.67 -15 122.34 -15 122 C-10.38 122 -5.76 122 -1 122 C-1.01160156 120.92878906 -1.02320313 119.85757813 -1.03515625 118.75390625 C-1.04453299 117.35677257 -1.05363331 115.95963701 -1.0625 114.5625 C-1.07087891 113.85544922 -1.07925781 113.14839844 -1.08789062 112.41992188 C-1.09653588 110.61306441 -1.05220011 108.80612397 -1 107 C-0.505 106.505 -0.505 106.505 0 106 C4.95 106 9.9 106 15 106 C15 76.63 15 47.26 15 17 C10.05 17 5.1 17 0 17 C-2 15 -2 15 -2.1953125 11.9609375 C-2.13020833 8.640625 -2.06510417 5.3203125 -2 2 C-6.29 2 -10.58 2 -15 2 C-15 1.67 -15 1.34 -15 1 C-14.00097656 1.01160156 -13.00195312 1.02320313 -11.97265625 1.03515625 C-10.68230469 1.04417969 -9.39195312 1.05320313 -8.0625 1.0625 C-6.13083984 1.07990234 -6.13083984 1.07990234 -4.16015625 1.09765625 C-1.13701597 1.36532549 -1.13701597 1.36532549 0 0 Z " fill="#443CB7" transform="translate(461,236)"/>
<path d="M0 0 C36.3 0 72.6 0 110 0 C110 14.52 110 29.04 110 44 C99.77 44 89.54 44 79 44 C79 43.67 79 43.34 79 43 C88.74297664 41.79822315 98.07156846 42 108 42 C108 28.8 108 15.6 108 2 C72.69 1.67 37.38 1.34 1 1 C1.33 14.53 1.66 28.06 2 42 C11.57 42.33 21.14 42.66 31 43 C31 43.33 31 43.66 31 44 C20.77 44 10.54 44 0 44 C0 29.48 0 14.96 0 0 Z " fill="#2117C3" transform="translate(887,221)"/>
<path d="M0 0 C5.28 0 10.56 0 16 0 C16 5.28 16 10.56 16 16 C21.28 16 26.56 16 32 16 C32 26.23 32 36.46 32 47 C37.28 47 42.56 47 48 47 C48 108.38 48 169.76 48 233 C47.67 233 47.34 233 47 233 C47 171.95 47 110.9 47 48 C41.72 48 36.44 48 31 48 C30.67 38.43 30.34 28.86 30 19 C25.05 18.67 20.1 18.34 15 18 C15 12.39 15 6.78 15 1 C10.05 1 5.1 1 0 1 C0 0.67 0 0.34 0 0 Z " fill="#403A96" transform="translate(231,235)"/>
<path d="M0 0 C1.75539345 0.00333092 1.75539345 0.00333092 3.54624939 0.00672913 C4.51207191 0.00651009 4.51207191 0.00651009 5.49740601 0.00628662 C7.63473327 0.00698567 9.77197438 0.01477761 11.9092865 0.02259827 C13.3875931 0.02446248 14.86590032 0.02588637 16.34420776 0.02688599 C20.24211827 0.03071093 24.13999174 0.040541 28.03788757 0.05158997 C32.01259358 0.0618046 35.98730554 0.06638372 39.96202087 0.07142639 C47.76607425 0.0821633 55.57009707 0.09923942 63.37413025 0.12025452 C63.86913025 1.11025452 63.86913025 1.11025452 64.37413025 2.12025452 C42.92413025 2.12025452 21.47413025 2.12025452 -0.62586975 2.12025452 C-0.62586975 27.53025452 -0.62586975 52.94025452 -0.62586975 79.12025452 C-1.61586975 78.46025452 -2.60586975 77.80025452 -3.62586975 77.12025452 C-3.91791021 74.64160901 -4.0148749 72.41260913 -3.98231506 69.93251038 C-3.98435944 69.19255325 -3.98640381 68.45259613 -3.98851013 67.69021606 C-3.99152443 65.23826081 -3.97302374 62.78697385 -3.95399475 60.33509827 C-3.95093842 58.63641527 -3.94906134 56.93772977 -3.94831848 55.23904419 C-3.94371151 51.67713346 -3.9292696 48.11544833 -3.90711975 44.55360413 C-3.87881556 39.97779328 -3.86790663 35.40216017 -3.86343765 30.8262701 C-3.85928979 27.31852423 -3.84947799 23.81081464 -3.83756256 20.30308723 C-3.83184803 18.61530919 -3.82709326 16.92752763 -3.82329559 15.23974419 C-3.8164544 12.8859678 -3.80283293 10.53233502 -3.78700256 8.17860413 C-3.7858847 7.47468536 -3.78476685 6.7707666 -3.78361511 6.04551697 C-3.73103329 0.17086666 -3.73103329 0.17086666 0 0 Z " fill="#453DB8" transform="translate(554.6258697509766,388.87974548339844)"/>
<path d="M0 0 C1.18335938 0.00580078 1.18335938 0.00580078 2.390625 0.01171875 C3.17179687 0.00785156 3.95296875 0.00398438 4.7578125 0 C8.0922196 0.0057096 10.83169486 0.0754087 14.015625 1.13671875 C14.015625 11.03671875 14.015625 20.93671875 14.015625 31.13671875 C18.635625 31.13671875 23.255625 31.13671875 28.015625 31.13671875 C28.015625 31.79671875 28.015625 32.45671875 28.015625 33.13671875 C22.735625 33.13671875 17.455625 33.13671875 12.015625 33.13671875 C12.015625 22.90671875 12.015625 12.67671875 12.015625 2.13671875 C6.075625 2.13671875 0.135625 2.13671875 -5.984375 2.13671875 C-5.984375 52.95671875 -5.984375 103.77671875 -5.984375 156.13671875 C-6.314375 156.13671875 -6.644375 156.13671875 -6.984375 156.13671875 C-7.00770234 135.94450166 -7.02535336 115.7522873 -7.03618717 95.56005955 C-7.04135048 86.18513604 -7.04839384 76.81022088 -7.05981445 67.43530273 C-7.06976023 59.26717353 -7.07622817 51.09905038 -7.07846349 42.9309153 C-7.07977078 38.6032082 -7.08285777 34.27551841 -7.09010506 29.94781685 C-7.0968636 25.87922147 -7.0989923 21.81065063 -7.09748268 17.74205017 C-7.09775908 16.24440312 -7.09976519 14.7467553 -7.10358047 13.24911308 C-7.10851506 11.21320557 -7.10677318 9.17728505 -7.10462952 7.14137268 C-7.10555131 5.99927117 -7.1064731 4.85716967 -7.10742283 3.68045902 C-6.87352735 -1.15480991 -4.21883895 0.00724886 0 0 Z " fill="#2118AC" transform="translate(1079.984375,310.86328125)"/>
<path d="M0 0 C4.62 0 9.24 0 14 0 C14 60.06 14 120.12 14 182 C9.38 182 4.76 182 0 182 C-0.33 187.61 -0.66 193.22 -1 199 C-5.95 199 -10.9 199 -16 199 C-16 198.34 -16 197.68 -16 197 C-11.71 197 -7.42 197 -3 197 C-3.02320313 196.01257813 -3.04640625 195.02515625 -3.0703125 194.0078125 C-3.08835937 192.72648438 -3.10640625 191.44515625 -3.125 190.125 C-3.14820313 188.84882813 -3.17140625 187.57265625 -3.1953125 186.2578125 C-3 183 -3 183 -1 181 C1.27734375 180.5859375 1.27734375 180.5859375 3.9375 180.375 C5.25041016 180.26285156 5.25041016 180.26285156 6.58984375 180.1484375 C8.390496 180.03753833 10.19593594 180 12 180 C12 121.26 12 62.52 12 2 C9.69 2 7.38 2 5 2 C3.32442621 1.71479595 1.65182755 1.40044304 0 1 C0 0.67 0 0.34 0 0 Z " fill="#2418C3" transform="translate(1362,253)"/>
<path d="M0 0 C4.95 0 9.9 0 15 0 C15 0.66 15 1.32 15 2 C8.565 2.495 8.565 2.495 2 3 C1.67 62.4 1.34 121.8 1 183 C15.52 183 30.04 183 45 183 C45 183.33 45 183.66 45 184 C30.15 184 15.3 184 0 184 C0 123.28 0 62.56 0 0 Z " fill="#2318C0" transform="translate(507,283)"/>
<path d="M0 0 C1.05904289 0.00636726 1.05904289 0.00636726 2.13948059 0.01286316 C4.39155428 0.02963841 6.64272867 0.06728632 8.89453125 0.10546875 C10.4225131 0.12051718 11.95050901 0.13420531 13.47851562 0.14648438 C17.22169997 0.17953786 20.96421321 0.23131043 24.70703125 0.29296875 C24.70703125 0.62296875 24.70703125 0.95296875 24.70703125 1.29296875 C9.36203125 1.78796875 9.36203125 1.78796875 -6.29296875 2.29296875 C-6.62296875 7.90296875 -6.95296875 13.51296875 -7.29296875 19.29296875 C-12.57296875 19.29296875 -17.85296875 19.29296875 -23.29296875 19.29296875 C-23.29296875 34.47296875 -23.29296875 49.65296875 -23.29296875 65.29296875 C-24.28296875 65.29296875 -25.27296875 65.29296875 -26.29296875 65.29296875 C-26.34356035 58.63610061 -26.37865635 51.97928181 -26.40283203 45.32226562 C-26.41290734 43.05629626 -26.42656793 40.79033994 -26.44384766 38.52441406 C-26.46802886 35.27275374 -26.47943638 32.02126488 -26.48828125 28.76953125 C-26.49860382 27.75178619 -26.50892639 26.73404114 -26.51956177 25.68545532 C-26.51971283 24.74463104 -26.51986389 23.80380676 -26.52001953 22.83447266 C-26.52446075 22.00396393 -26.52890198 21.1734552 -26.53347778 20.31777954 C-26.29296875 18.29296875 -26.29296875 18.29296875 -24.29296875 16.29296875 C-21.03515625 16.09765625 -21.03515625 16.09765625 -17.16796875 16.16796875 C-15.24597656 16.19503906 -15.24597656 16.19503906 -13.28515625 16.22265625 C-11.80402344 16.25746094 -11.80402344 16.25746094 -10.29296875 16.29296875 C-10.62296875 15.30296875 -10.95296875 14.31296875 -11.29296875 13.29296875 C-11.27734375 10.91796875 -11.27734375 10.91796875 -11.04296875 8.29296875 C-10.9759375 7.42671875 -10.90890625 6.56046875 -10.83984375 5.66796875 C-9.46259877 -0.31320946 -5.36876465 -0.12144918 0 0 Z " fill="#3B31C3" transform="translate(577.29296875,278.70703125)"/>
<path d="M0 0 C10.23 0 20.46 0 31 0 C31 0.33 31 0.66 31 1 C21.1 1 11.2 1 1 1 C1.33 5.29 1.66 9.58 2 14 C2.06913663 16.46408897 2.10933886 18.92950024 2.09765625 21.39453125 C2.09282227 23.22661133 2.09282227 23.22661133 2.08789062 25.09570312 C2.07951172 26.32224609 2.07113281 27.54878906 2.0625 28.8125 C2.05798828 30.08931641 2.05347656 31.36613281 2.04882812 32.68164062 C2.03719452 35.78781211 2.02085075 38.89387908 2 42 C15.67302562 42.0231205 29.34604664 42.04091359 43.01908779 42.05181217 C49.36730576 42.05704164 55.7155104 42.06414044 62.0637207 42.07543945 C68.18448582 42.08626606 74.30523809 42.09227635 80.42601204 42.09487724 C82.76690943 42.0967319 85.10780609 42.10035329 87.44869804 42.10573006 C90.71508202 42.11293748 93.98141215 42.11399107 97.24780273 42.11352539 C98.71515114 42.1189183 98.71515114 42.1189183 100.21214294 42.12442017 C101.09700378 42.1230455 101.98186462 42.12167084 102.89353943 42.12025452 C103.66692374 42.12117631 104.44030806 42.1220981 105.23712826 42.12304783 C107.02686827 42.1918499 107.02686827 42.1918499 108 41 C108.23192865 39.48530552 108.41215238 37.96245438 108.5625 36.4375 C108.68818359 35.19806641 108.68818359 35.19806641 108.81640625 33.93359375 C108.87699219 33.29550781 108.93757812 32.65742188 109 32 C109.33 32 109.66 32 110 32 C110 35.96 110 39.92 110 44 C73.7 44 37.4 44 0 44 C0 29.48 0 14.96 0 0 Z " fill="#2218C1" transform="translate(887,423)"/>
<path d="M0 0 C5.61 0 11.22 0 17 0 C18.28257952 3.84773857 18.17721415 7.49885763 18.20532227 11.51049805 C18.21522186 12.37900391 18.22512146 13.24750977 18.23532104 14.14233398 C18.26692944 17.01543443 18.29169092 19.88855142 18.31640625 22.76171875 C18.33697634 24.75283744 18.35797283 26.74395177 18.37937927 28.73506165 C18.43459421 33.97767608 18.48400608 39.22032988 18.53222656 44.4630127 C18.58244577 49.81196602 18.63812965 55.16086211 18.69335938 60.50976562 C18.8009339 71.00646154 18.90238048 81.50320712 19 92 C20.65 92 22.3 92 24 92 C24 92.33 24 92.66 24 93 C22.88625 92.95875 21.7725 92.9175 20.625 92.875 C16.95633975 92.58878141 16.95633975 92.58878141 15 95 C15 63.98 15 32.96 15 1 C10.05 1 5.1 1 0 1 C0 0.67 0 0.34 0 0 Z " fill="#392EBC" transform="translate(1125,373)"/>
<path d="M0 0 C0.33 0 0.66 0 1 0 C1.16782889 6.67505193 1.32779181 13.35025846 1.48217773 20.02563477 C1.5356848 22.29846508 1.59102056 24.57125308 1.64819336 26.84399414 C1.72986216 30.10293449 1.80504251 33.36196836 1.87890625 36.62109375 C1.90594131 37.64400009 1.93297638 38.66690643 1.96083069 39.72080994 C1.98092697 40.66170975 2.00102325 41.60260956 2.02172852 42.57202148 C2.04171402 43.40475082 2.06169952 44.23748016 2.08229065 45.09544373 C2 47 2 47 1 48 C-1.05556661 48.09413687 -3.11440181 48.11742998 -5.17211914 48.11352539 C-6.13794167 48.11374443 -6.13794167 48.11374443 -7.12327576 48.1139679 C-9.26060303 48.11326885 -11.39784413 48.10547691 -13.53515625 48.09765625 C-15.01346285 48.09579204 -16.49177007 48.09436815 -17.97007751 48.09336853 C-21.86798802 48.08954359 -25.76586149 48.07971352 -29.66375732 48.06866455 C-33.63846333 48.05844992 -37.61317529 48.0538708 -41.58789062 48.04882812 C-49.391944 48.03809122 -57.19596682 48.02101509 -65 48 C-65.33 47.34 -65.66 46.68 -66 46 C-44.22 46 -22.44 46 0 46 C0 30.82 0 15.64 0 0 Z " fill="#251CA3" transform="translate(231,298)"/>
<path d="M0 0 C5.28 0 10.56 0 16 0 C16 0.66 16 1.32 16 2 C12.98509443 3.00496852 10.95818308 3.10335303 7.8125 3.0625 C6.91144531 3.05347656 6.01039063 3.04445312 5.08203125 3.03515625 C4.39496094 3.02355469 3.70789063 3.01195312 3 3 C2.97421875 3.81984375 2.9484375 4.6396875 2.921875 5.484375 C2.86515625 6.56203125 2.8084375 7.6396875 2.75 8.75 C2.68039062 10.35101563 2.68039062 10.35101563 2.609375 11.984375 C1.87287778 15.62909201 1.05288005 16.89598807 -2 19 C-4.796875 19.171875 -4.796875 19.171875 -7.75 18.75 C-8.73484375 18.62109375 -9.7196875 18.4921875 -10.734375 18.359375 C-11.48203125 18.24078125 -12.2296875 18.1221875 -13 18 C-12.98839844 18.69222656 -12.97679687 19.38445312 -12.96484375 20.09765625 C-12.90911337 26.14042135 -13.03290239 32.15539664 -13.375 38.1875 C-13.47941406 40.09595703 -13.47941406 40.09595703 -13.5859375 42.04296875 C-13.72257813 43.01878906 -13.85921875 43.99460937 -14 45 C-14.99 45.495 -14.99 45.495 -16 46 C-16 35.77 -16 25.54 -16 15 C-10.72 15 -5.44 15 0 15 C0 10.05 0 5.1 0 0 Z " fill="#241BAE" transform="translate(538,236)"/>
<path d="M0 0 C21.45 0 42.9 0 65 0 C65 5.28 65 10.56 65 16 C64.01 15.01 64.01 15.01 63 14 C63 9.71 63 5.42 63 1 C42.54 1 22.08 1 1 1 C1 6.28 1 11.56 1 17 C0 18 0 18 -3.16015625 18.09765625 C-4.44792969 18.08605469 -5.73570312 18.07445312 -7.0625 18.0625 C-8.35285156 18.05347656 -9.64320313 18.04445312 -10.97265625 18.03515625 C-11.97167969 18.02355469 -12.97070312 18.01195312 -14 18 C-14 22.29 -14 26.58 -14 31 C-14.66 31 -15.32 31 -16 31 C-16 26.05 -16 21.1 -16 16 C-10.72 16 -5.44 16 0 16 C0 10.72 0 5.44 0 0 Z " fill="#261F98" transform="translate(166,220)"/>
<path d="M0 0 C3.02937152 3.02937152 3 6.81763963 3 11 C3.88751953 10.94779297 3.88751953 10.94779297 4.79296875 10.89453125 C9.65404565 10.7280017 13.15341035 10.63423405 17 14 C18.17338277 17.20396732 17.9596858 19.89598659 17.5625 23.25 C17.46066406 24.14203125 17.35882812 25.0340625 17.25390625 25.953125 C17.17011719 26.62859375 17.08632813 27.3040625 17 28 C18.48113281 27.96519531 18.48113281 27.96519531 19.9921875 27.9296875 C21.27351562 27.91164063 22.55484375 27.89359375 23.875 27.875 C25.15117188 27.85179687 26.42734375 27.82859375 27.7421875 27.8046875 C31 28 31 28 33 30 C33.28034724 34.67619188 33.08523334 39.31216611 33 44 C40.92 44 48.84 44 57 44 C57 44.33 57 44.66 57 45 C48.75 45 40.5 45 32 45 C32 40.38 32 35.76 32 31 C26.39 31 20.78 31 15 31 C14.67 25.39 14.34 19.78 14 14 C7.07 13.505 7.07 13.505 0 13 C0 8.71 0 4.42 0 0 Z " fill="#2C22BC" transform="translate(729,422)"/>
<path d="M0 0 C0.33 0 0.66 0 1 0 C0.98839844 0.99902344 0.97679687 1.99804688 0.96484375 3.02734375 C0.95582031 4.31769531 0.94679687 5.60804688 0.9375 6.9375 C0.92589844 8.22527344 0.91429687 9.51304687 0.90234375 10.83984375 C0.63467451 13.86298403 0.63467451 13.86298403 2 15 C2 10.05 2 5.1 2 0 C2.33 0 2.66 0 3 0 C3 5.28 3 10.56 3 16 C-2.28 16 -7.56 16 -13 16 C-13 31.18 -13 46.36 -13 62 C-13.99 61.67 -14.98 61.34 -16 61 C-16 45.82 -16 30.64 -16 15 C-15.34 15 -14.68 15 -14 15 C-14 14.34 -14 13.68 -14 13 C-9.38 13 -4.76 13 0 13 C0 8.71 0 4.42 0 0 Z " fill="#443AC5" transform="translate(179,282)"/>
<path d="M0 0 C0.33 0 0.66 0 1 0 C1 4.95 1 9.9 1 15 C2.20398438 14.97679687 3.40796875 14.95359375 4.6484375 14.9296875 C6.22395215 14.91093137 7.79947348 14.89273101 9.375 14.875 C10.1690625 14.85824219 10.963125 14.84148437 11.78125 14.82421875 C13.85492015 14.80664527 15.92883241 14.89664832 18 15 C20 17 20 17 20.1953125 19.8203125 C20.17210937 20.91085937 20.14890625 22.00140625 20.125 23.125 C20.10695313 24.22070312 20.08890625 25.31640625 20.0703125 26.4453125 C20.04710937 27.28835938 20.02390625 28.13140625 20 29 C21.37285156 28.96519531 21.37285156 28.96519531 22.7734375 28.9296875 C23.96195312 28.91164063 25.15046875 28.89359375 26.375 28.875 C27.55835938 28.85179687 28.74171875 28.82859375 29.9609375 28.8046875 C33 29 33 29 35 31 C35.14517744 33.9093558 35.18630796 36.719946 35.125 39.625 C35.11597656 40.42679687 35.10695313 41.22859375 35.09765625 42.0546875 C35.07406223 44.03658523 35.03819065 46.01832981 35 48 C34.67 48 34.34 48 34 48 C33.67 42.72 33.34 37.44 33 32 C27.39 31.67 21.78 31.34 16 31 C16 26.05 16 21.1 16 16 C10.72 16 5.44 16 0 16 C0 10.72 0 5.44 0 0 Z " fill="#3C33B7" transform="translate(397,375)"/>
<path d="M0 0 C5.28 0 10.56 0 16 0 C15.67 0.66 15.34 1.32 15 2 C10.71 2 6.42 2 2 2 C2 11.9 2 21.8 2 32 C-1.5408214 33.1802738 -4.62355373 33.0238386 -8.29296875 32.87890625 C-9.35201164 32.84348976 -9.35201164 32.84348976 -10.43244934 32.80735779 C-12.68434507 32.73087055 -14.93588387 32.64678253 -17.1875 32.5625 C-18.71547741 32.50926432 -20.24347216 32.45652401 -21.77148438 32.40429688 C-25.51454835 32.27527576 -29.25731019 32.13943788 -33 32 C-33 31.67 -33 31.34 -33 31 C-22.11 31 -11.22 31 0 31 C0 20.77 0 10.54 0 0 Z " fill="#372EAF" transform="translate(793,375)"/>
<path d="M0 0 C0.66 0 1.32 0 2 0 C2.07347656 1.17369141 2.07347656 1.17369141 2.1484375 2.37109375 C2.22320313 3.38300781 2.29796875 4.39492188 2.375 5.4375 C2.44460938 6.44683594 2.51421875 7.45617187 2.5859375 8.49609375 C2.72257812 9.32238281 2.85921875 10.14867187 3 11 C5.19616149 12.29653206 5.19616149 12.29653206 8.8125 11.875 C12.67243282 11.81885552 14.90338977 12.56024648 18 15 C20.02903697 19.05807395 19.0467948 24.60128877 19 29 C23.29 29.33 27.58 29.66 32 30 C32 30.33 32 30.66 32 31 C26.72 31 21.44 31 16 31 C16 25.72 16 20.44 16 15 C10.72 15 5.44 15 0 15 C0 10.05 0 5.1 0 0 Z " fill="#1F16A9" transform="translate(1108,344)"/>
<path d="M0 0 C0.66 0 1.32 0 2 0 C2 3.96 2 7.92 2 12 C2.91523438 11.97679687 3.83046875 11.95359375 4.7734375 11.9296875 C5.96195312 11.91164063 7.15046875 11.89359375 8.375 11.875 C9.55835938 11.85179687 10.74171875 11.82859375 11.9609375 11.8046875 C15 12 15 12 17 14 C17.17488254 16.43744897 17.23177405 18.7593608 17.1953125 21.1953125 C17.1924826 21.90275604 17.18965271 22.61019958 17.18673706 23.33908081 C17.17553137 25.6012251 17.15042679 27.86297515 17.125 30.125 C17.11497067 31.65754637 17.10584474 33.19009894 17.09765625 34.72265625 C17.07559086 38.48192301 17.04105896 42.24089464 17 46 C16.67 46 16.34 46 16 46 C16 35.77 16 25.54 16 15 C10.72 15 5.44 15 0 15 C0 10.05 0 5.1 0 0 Z " fill="#1F15A8" transform="translate(414,267)"/>
<path d="M0 0 C5.94 0 11.88 0 18 0 C18 10.23 18 20.46 18 31 C17.34 31 16.68 31 16 31 C16 21.43 16 11.86 16 2 C10.72 2 5.44 2 0 2 C0 1.34 0 0.68 0 0 Z " fill="#382FAC" transform="translate(742,375)"/>
<path d="M0 0 C0.33 0 0.66 0 1 0 C1 2.31 1 4.62 1 7 C-3.62 7 -8.24 7 -13 7 C-13.33 12.61 -13.66 18.22 -14 24 C-18.95 24 -23.9 24 -29 24 C-29 23.34 -29 22.68 -29 22 C-24.71 22 -20.42 22 -16 22 C-16.02320313 21.01257813 -16.04640625 20.02515625 -16.0703125 19.0078125 C-16.08835937 17.72648437 -16.10640625 16.44515625 -16.125 15.125 C-16.14820313 13.84882813 -16.17140625 12.57265625 -16.1953125 11.2578125 C-16 8 -16 8 -14 6 C-11.72265625 5.5859375 -11.72265625 5.5859375 -9.0625 5.375 C-8.18722656 5.30023438 -7.31195312 5.22546875 -6.41015625 5.1484375 C-4.609504 5.03753833 -2.80406406 5 -1 5 C-0.67 3.35 -0.34 1.7 0 0 Z " fill="#2015B7" transform="translate(1375,428)"/>
<path d="M0 0 C0.33 0 0.66 0 1 0 C1 1.65 1 3.3 1 5 C6.61 5 12.22 5 18 5 C18 9.95 18 14.9 18 20 C17.34 20 16.68 20 16 20 C16 16.04 16 12.08 16 8 C14.659375 8.04125 13.31875 8.0825 11.9375 8.125 C7.57422161 8.13880784 4.116162 7.40124664 0 6 C0 4.02 0 2.04 0 0 Z " fill="#1E14B1" transform="translate(616,231)"/>
<path d="M0 0 C0.33 0 0.66 0 1 0 C1 4.95 1 9.9 1 15 C5.95 15 10.9 15 16 15 C16 15.33 16 15.66 16 16 C13.18743719 16.02684312 10.37512759 16.04676188 7.5625 16.0625 C6.76005859 16.07087891 5.95761719 16.07925781 5.13085938 16.08789062 C3.08704779 16.0965143 1.04316098 16.0522815 -1 16 C-2 15 -2 15 -2.09765625 12.05859375 C-2.04882812 7.02929688 -2.04882812 7.02929688 -2 2 C-6.29 2 -10.58 2 -15 2 C-15 1.67 -15 1.34 -15 1 C-14.00097656 1.01160156 -13.00195312 1.02320313 -11.97265625 1.03515625 C-10.68230469 1.04417969 -9.39195312 1.05320313 -8.0625 1.0625 C-6.13083984 1.07990234 -6.13083984 1.07990234 -4.16015625 1.09765625 C-1.13701597 1.36532549 -1.13701597 1.36532549 0 0 Z " fill="#3E37B7" transform="translate(461,236)"/>
<path d="M0 0 C4.95 0 9.9 0 15 0 C15 5.61 15 11.22 15 17 C14.34 16.67 13.68 16.34 13 16 C12.3671875 13.05859375 12.3671875 13.05859375 11.875 9.4375 C11.70742187 8.23996094 11.53984375 7.04242188 11.3671875 5.80859375 C11.24601563 4.88175781 11.12484375 3.95492187 11 3 C7.37 2.67 3.74 2.34 0 2 C0 1.34 0 0.68 0 0 Z " fill="#1E14B0" transform="translate(231,236)"/>
<path d="M0 0 C4.95 0 9.9 0 15 0 C15 5.28 15 10.56 15 16 C14.34 15.67 13.68 15.34 13 15 C13 11.04 13 7.08 13 3 C10.0609375 2.814375 10.0609375 2.814375 7.0625 2.625 C3.72265625 2.4140625 3.72265625 2.4140625 1 2 C0.67 1.34 0.34 0.68 0 0 Z " fill="#2017AB" transform="translate(1108,282)"/>
<path d="M0 0 C0 0.99 0 1.98 0 3 C-4.62 3 -9.24 3 -14 3 C-14 7.29 -14 11.58 -14 16 C-14.66 16 -15.32 16 -16 16 C-16 11.05 -16 6.1 -16 1 C-8.08 0.505 -8.08 0.505 0 0 Z " fill="#2016AE" transform="translate(166,235)"/>
<path d="M0 0 C5.28 0 10.56 0 16 0 C16 0.66 16 1.32 16 2 C12.98509443 3.00496852 10.95818308 3.10335303 7.8125 3.0625 C6.224375 3.041875 4.63625 3.02125 3 3 C2.67 6.96 2.34 10.92 2 15 C1.34 15 0.68 15 0 15 C0 10.05 0 5.1 0 0 Z " fill="#1E14AD" transform="translate(538,236)"/>
<path d="M0 0 C0.66 0 1.32 0 2 0 C2 4.62 2 9.24 2 14 C-3.28 14 -8.56 14 -14 14 C-13.67 13.34 -13.34 12.68 -13 12 C-10.27734375 11.5859375 -10.27734375 11.5859375 -6.9375 11.375 C-5.83277344 11.30023438 -4.72804688 11.22546875 -3.58984375 11.1484375 C-2.73519531 11.09945313 -1.88054688 11.05046875 -1 11 C-0.67 7.37 -0.34 3.74 0 0 Z " fill="#1D14B4" transform="translate(822,422)"/>
</svg>
